<svg width="32" height="32" viewBox="0 0 32 32" fill="none" xmlns="http://www.w3.org/2000/svg">
<path d="M16 2.66666C8.63602 2.66666 2.66669 8.636 2.66669 16C2.66669 21.9247 6.53402 26.9407 11.88 28.6773H20.12C25.466 26.9407 29.3334 21.9247 29.3334 16C29.3334 8.636 23.364 2.66666 16 2.66666Z" fill="url(#paint0_linear)"/>
<path opacity="0.05" d="M20.0067 27.9973L20 24.132C20 23.506 19.8533 22.8947 19.572 22.3407C23.3327 21.5853 25.1627 19.362 25.1627 15.556C25.1627 14.0527 24.7193 12.7253 23.8453 11.6093C23.912 11.398 23.9613 11.1793 23.992 10.9553C24.1173 10.0427 23.9767 9.446 23.8633 8.966L23.8453 8.88866C23.7213 8.358 23.5727 7.97933 23.5667 7.96333L23.4927 7.77533L23.4187 7.58733L23.2173 7.566L23.0153 7.54466C23.0153 7.54466 22.8827 7.53066 22.6813 7.53066C22.402 7.53066 21.988 7.55866 21.5967 7.69133L21.466 7.73533C20.9727 7.90133 20.5067 8.05866 19.8547 8.448C19.664 8.562 19.4553 8.692 19.232 8.83733C18.2227 8.58733 17.1367 8.46 16 8.46C14.852 8.46 13.7567 8.588 12.7407 8.84066C12.5147 8.694 12.3047 8.56266 12.1127 8.448C11.4607 8.05866 10.9947 7.902 10.5013 7.73533L10.3707 7.69133C9.98068 7.55866 9.56601 7.53066 9.28668 7.53066C9.08535 7.53066 8.95268 7.54466 8.95268 7.54466L8.75135 7.566L8.55135 7.58666L8.47668 7.774L8.40135 7.96266C8.39468 7.98 8.24601 8.35866 8.12201 8.89L8.10401 8.96666C7.99068 9.446 7.85001 10.0433 7.97535 10.9553C8.00735 11.186 8.05868 11.412 8.12868 11.6293C7.27201 12.74 6.83801 14.06 6.83801 15.556C6.83801 19.3527 8.67001 21.5747 12.436 22.336C12.3067 22.5947 12.206 22.868 12.1347 23.152C12.0033 23.1967 11.8827 23.2267 11.776 23.2433C11.6173 23.2673 11.4513 23.2793 11.2833 23.2793C10.826 23.2793 10.4667 23.19 10.3267 23.1067C10.118 22.9827 9.74535 22.622 9.38401 22.0947C9.07535 21.6447 8.59401 21.056 8.05601 20.81C7.59068 20.5973 7.09801 20.4753 6.70335 20.4753C6.61135 20.4753 6.52668 20.482 6.45268 20.494C6.10801 20.5487 5.82001 20.738 5.66335 21.014C5.52801 21.252 5.50668 21.5293 5.60468 21.7747C5.75068 22.14 6.17201 22.4313 6.50001 22.6113C6.66135 22.7 7.01001 23.024 7.21335 23.3507C7.36601 23.596 7.43668 23.7707 7.53468 24.012C7.59268 24.1553 7.65668 24.3113 7.74335 24.5C8.05668 25.1813 9.03468 25.7827 9.14535 25.8487C9.68268 26.1707 10.586 26.274 11.25 26.304L11.332 26.306H11.3327C11.4927 26.306 11.7127 26.2907 12.002 26.2587V28.0007C12.0033 28.3533 11.644 28.4333 11.1687 28.426L11.5333 28.5487C12.93 29.048 14.43 29.3333 16 29.3333C17.57 29.3333 19.07 29.048 20.4687 28.5493L20.9373 28.3747C20.4633 28.3587 20.0107 28.2813 20.0067 27.9973Z" fill="black"/>
<path opacity="0.07" d="M20.5207 28.5313C20.25 28.5627 19.6667 28.4587 19.6667 28.0013V24.132C19.6667 23.4027 19.448 22.698 19.0427 22.0973C22.986 21.4593 24.8287 19.3687 24.8287 15.556C24.8287 14.0647 24.3714 12.76 23.4694 11.6747C23.5607 11.4313 23.6247 11.1747 23.6614 10.91C23.778 10.0593 23.6507 9.51933 23.5387 9.04267L23.5207 8.96533C23.402 8.458 23.262 8.10067 23.256 8.086L23.182 7.898L22.98 7.87667C22.98 7.87667 22.8614 7.864 22.6807 7.864C22.4267 7.864 22.0514 7.88867 21.7034 8.00733L21.5727 8.05133C21.0967 8.212 20.6467 8.36333 20.0254 8.734C19.804 8.866 19.5574 9.02133 19.2914 9.19667C18.2694 8.92933 17.1634 8.79333 16 8.79333C14.8254 8.79333 13.71 8.93 12.6807 9.2C12.412 9.02333 12.164 8.86733 11.9414 8.734C11.32 8.36333 10.87 8.21133 10.394 8.05133L10.2634 8.00733C9.91603 7.88933 9.54003 7.864 9.28603 7.864C9.10537 7.864 8.9867 7.87667 8.9867 7.87667L8.78537 7.898L8.71003 8.08667C8.70403 8.10133 8.56403 8.45867 8.44537 8.966L8.42737 9.04333C8.3147 9.52 8.18737 10.0593 8.3047 10.91C8.34203 11.1813 8.4087 11.444 8.50337 11.6927C7.6187 12.7727 7.1707 14.0707 7.1707 15.556C7.1707 19.358 9.0147 21.448 12.9614 22.0933C12.698 22.4867 12.514 22.93 12.4194 23.4027C12.1994 23.4893 12 23.5467 11.8254 23.5733C11.65 23.6 11.4674 23.6133 11.2827 23.6133C10.8227 23.6133 10.3807 23.5273 10.156 23.394C9.8627 23.22 9.45137 22.7847 9.10803 22.284C8.8747 21.944 8.41003 21.3393 7.91603 21.114C7.4927 20.9207 7.0507 20.8093 6.70203 20.8093C6.6287 20.8093 6.56203 20.8147 6.50337 20.824C6.25937 20.8627 6.05803 20.992 5.95137 21.18C5.86603 21.3293 5.85203 21.502 5.91203 21.652C6.03137 21.9507 6.47337 22.2187 6.65803 22.32C6.88137 22.4427 7.2707 22.816 7.49403 23.176C7.66137 23.4453 7.7407 23.6407 7.84137 23.8873C7.89803 24.0267 7.96003 24.1787 8.04403 24.362C8.2647 24.8413 8.94603 25.3433 9.31403 25.564C9.8167 25.8653 10.75 25.9493 11.262 25.972L11.336 25.9733C11.5354 25.9733 11.8694 25.9433 12.3327 25.8833V28.0013C12.3327 28.5207 11.672 28.5413 11.51 28.5413C11.4894 28.5413 11.8454 28.664 11.8454 28.664C13.154 29.0933 14.548 29.3333 16 29.3333C17.452 29.3333 18.846 29.0933 20.154 28.6647C20.154 28.6647 20.5414 28.5287 20.5207 28.5313Z" fill="black"/>
<path d="M24.496 15.556C24.496 14.016 23.9746 12.7387 23.0846 11.7373C23.1813 11.5207 23.282 11.23 23.332 10.8647C23.4466 10.0313 23.3113 9.53133 23.1966 9.042C23.082 8.55266 22.9466 8.20866 22.9466 8.20866C22.9466 8.20866 22.332 8.146 21.8113 8.32333C21.2906 8.50066 20.8426 8.636 20.1966 9.02133C19.8946 9.20133 19.5906 9.39866 19.35 9.55866C18.3213 9.27333 17.19 9.12666 16 9.12666C14.7993 9.12666 13.658 9.274 12.622 9.56133C12.3806 9.40066 12.0746 9.202 11.7706 9.02066C11.1246 8.63533 10.6766 8.5 10.156 8.32266C9.6353 8.14533 9.02063 8.208 9.02063 8.208C9.02063 8.208 8.8853 8.552 8.77063 9.04133C8.65596 9.53066 8.52063 10.0307 8.6353 10.864C8.68663 11.2387 8.79063 11.5347 8.88996 11.7527C8.01663 12.748 7.50463 14.0173 7.50463 15.5553C7.50463 19.544 9.6593 21.3647 13.5853 21.8453C13.1273 22.3293 12.82 22.9493 12.7166 23.6393C12.4586 23.7527 12.1613 23.8593 11.8753 23.902C11.1393 24.0133 10.3613 23.902 9.98663 23.68C9.61196 23.458 9.1673 22.958 8.83396 22.4713C8.55263 22.0607 8.14663 21.584 7.77863 21.416C7.29263 21.194 6.81996 21.1107 6.55663 21.152C6.29263 21.194 6.16796 21.388 6.2233 21.5273C6.27863 21.666 6.54263 21.8747 6.82063 22.0273C7.09863 22.18 7.5293 22.5967 7.7793 22.9993C8.05796 23.4487 8.11263 23.708 8.34863 24.2213C8.51463 24.5827 9.08263 25.034 9.4873 25.2767C9.83463 25.4853 10.5286 25.604 11.2793 25.638C11.5386 25.65 12.1513 25.574 12.668 25.5007V28.0007C12.668 28.4267 12.278 28.7507 11.874 28.676C13.1706 29.112 14.5553 29.3333 16 29.3333C17.444 29.3333 18.8286 29.112 20.1266 28.6773C19.7233 28.7513 19.3333 28.4273 19.3333 28.0013V24.132C19.3333 23.246 18.982 22.4453 18.418 21.8487C22.3153 21.3807 24.496 19.6033 24.496 15.556ZM7.49263 21.818C7.38996 21.7653 7.33463 21.668 7.3693 21.5993C7.40396 21.5307 7.51596 21.518 7.61863 21.5707C7.7213 21.6233 7.77663 21.7207 7.74196 21.7893C7.7073 21.858 7.5953 21.8707 7.49263 21.818ZM8.30063 22.3213C8.24663 22.38 8.13063 22.3613 8.0413 22.28C7.95196 22.1987 7.9233 22.0847 7.9773 22.026C8.0313 21.9673 8.1473 21.986 8.23663 22.0673C8.32596 22.1487 8.35463 22.2627 8.30063 22.3213ZM8.8033 23.1547C8.7353 23.2027 8.61996 23.158 8.54596 23.0547C8.47196 22.9513 8.4673 22.828 8.5353 22.78C8.6033 22.732 8.71863 22.7767 8.79263 22.88C8.86596 22.9833 8.8713 23.1067 8.8033 23.1547ZM9.5253 23.782C9.4793 23.8567 9.34863 23.86 9.23396 23.79C9.1193 23.72 9.0633 23.6027 9.1093 23.528C9.1553 23.4533 9.28596 23.45 9.40063 23.52C9.5153 23.59 9.5713 23.7073 9.5253 23.782ZM10.208 24.396C10.066 24.3787 9.96063 24.29 9.97263 24.198C9.98396 24.106 10.1086 24.046 10.25 24.0633C10.392 24.0807 10.4973 24.1693 10.4853 24.2613C10.474 24.3527 10.35 24.4133 10.208 24.396ZM11.3086 24.5553C11.1573 24.5467 11.0393 24.46 11.0453 24.3627C11.0513 24.2653 11.1786 24.1927 11.33 24.2013C11.4813 24.21 11.5993 24.2967 11.5933 24.394C11.5873 24.492 11.46 24.564 11.3086 24.5553ZM12.3473 24.4513C12.186 24.4513 12.0553 24.3673 12.0553 24.264C12.0553 24.1607 12.186 24.0767 12.3473 24.0767C12.5086 24.0767 12.6393 24.1607 12.6393 24.264C12.6393 24.3673 12.508 24.4513 12.3473 24.4513Z" fill="white"/>
<defs>
<linearGradient id="paint0_linear" x1="2.66669" y1="15.672" x2="29.3334" y2="15.672" gradientUnits="userSpaceOnUse">
<stop stop-color="#4C4C4C"/>
<stop offset="1" stop-color="#343434"/>
</linearGradient>
</defs>
</svg>
