<svg width="32" height="32" viewBox="0 0 32 32" fill="none" xmlns="http://www.w3.org/2000/svg">
<path d="M30 10.8L26.6667 12.6333L23.3334 15.8V26.6667H28C29.1047 26.6667 30 25.7713 30 24.6667V10.8Z" fill="#4CAF50"/>
<path d="M2 10.8L4.40933 11.94L8.66667 15.8V26.6667H4C2.89533 26.6667 2 25.7713 2 24.6667V10.8Z" fill="#1E88E5"/>
<path d="M23.3333 7.46667L16 12.9667L8.66667 7.46667L8 11.3333L8.66667 15.8L16 21.3L23.3333 15.8L24 11.3333L23.3333 7.46667Z" fill="#E53935"/>
<path d="M2 8.19867V10.8L8.66667 15.8V7.46667L6.584 5.906C6.088 5.534 5.48533 5.33334 4.86533 5.33334C3.28267 5.33334 2 6.616 2 8.19867Z" fill="#C62828"/>
<path d="M30 8.19867V10.8L23.3334 15.8V7.46667L25.416 5.906C25.912 5.534 26.5147 5.33334 27.1347 5.33334C28.7174 5.33334 30 6.616 30 8.19867Z" fill="#FBC02D"/>
</svg>
