<svg width="32" height="32" viewBox="0 0 32 32" fill="none" xmlns="http://www.w3.org/2000/svg">
<path d="M28 24.6667C28 26.508 26.508 28 24.6667 28H7.33333C5.49267 28 4 26.508 4 24.6667V7.33333C4 5.492 5.49267 4 7.33333 4H24.6667C26.508 4 28 5.492 28 7.33333V24.6667Z" fill="#0078D4"/>
<path opacity="0.05" d="M20 24.6667V17.934C20 16.808 19.454 16.1353 18.5387 16.1353C17.9954 16.1353 17.596 16.4413 17.3527 17.0447C17.3414 17.0873 17.3254 17.2613 17.332 17.7873L17.3334 24.6667H12.6667V12H17.3334V12.7073C18.0147 12.2373 18.85 12 19.8254 12C22.8567 12 24.666 14.062 24.666 17.516L24.6667 24.6667H20ZM7.33337 24.6667V12H9.63804C8.30271 12 7.33337 11.0187 7.33337 9.666C7.33337 8.31467 8.31871 7.33334 9.67604 7.33334C11.0174 7.33334 11.9727 8.28734 12 9.65267C12 11.0153 11.014 12 9.65671 12H12V24.6667H7.33337Z" fill="black"/>
<path opacity="0.07" d="M20.3333 24.3333V17.934C20.3333 16.6187 19.646 15.802 18.5386 15.802C17.6753 15.802 17.2486 16.41 17.0433 16.92C16.9886 17.0527 16.996 17.5793 16.9986 17.804L17 24.3333H13V12.3333H17V13.4253C17.53 12.8767 18.3833 12.3333 19.8253 12.3333C22.6473 12.3333 24.3326 14.2707 24.3326 17.516L24.3333 24.3333H20.3333ZM7.66663 24.3333V12.3333H11.6666V24.3333H7.66663ZM9.63796 11.6667C8.49596 11.6667 7.66663 10.8253 7.66663 9.666C7.66663 8.50733 8.51196 7.66666 9.67596 7.66666C10.8253 7.66666 11.6433 8.486 11.6666 9.65933C11.6666 10.8253 10.8213 11.6667 9.65663 11.6667H9.63796Z" fill="black"/>
<path d="M8 12.6667H11.3333V24H8V12.6667ZM9.65667 11.3333H9.638C8.64333 11.3333 8 10.592 8 9.666C8 8.72 8.66333 8 9.676 8C10.69 8 11.3147 8.72 11.3333 9.666C11.3333 10.5913 10.69 11.3333 9.65667 11.3333ZM24 24H20.6667V17.934C20.6667 16.4687 19.85 15.4687 18.5387 15.4687C17.538 15.4687 16.9967 16.1433 16.734 16.7953C16.638 17.0287 16.6667 17.674 16.6667 18V24H13.3333V12.6667H16.6667V14.4107C17.1473 13.6667 17.9 12.6667 19.8253 12.6667C22.2107 12.6667 23.9993 14.1667 23.9993 17.516L24 24Z" fill="white"/>
</svg>
