<svg width="32" height="32" viewBox="0 0 32 32" fill="none" xmlns="http://www.w3.org/2000/svg">
<path d="M29.3333 16C29.3333 23.3633 23.3633 29.3333 16 29.3333C8.63663 29.3333 2.66663 23.3633 2.66663 16C2.66663 8.63666 8.63663 2.66666 16 2.66666C23.3633 2.66666 29.3333 8.63666 29.3333 16Z" fill="url(#paint0_linear)"/>
<path opacity="0.05" d="M6.74603 15.644C12.1827 13.1807 18.568 10.508 19.5514 10.1213C21.7194 9.26866 22.6647 10.14 22.5167 11.53C22.3347 13.2333 21.472 18.19 20.9414 21.7413C20.6307 23.8193 19.5054 24.456 18.2354 23.65C17.272 23.0387 13.96 20.87 13.0887 20.1287C12.4947 19.6233 12.0807 19.0567 12.502 18.4793C12.6254 18.3107 12.9407 17.9707 13.116 17.8013C13.9954 16.9493 13.8767 16.766 12.8134 17.5267C12.6867 17.6173 11.952 18.15 11.65 18.3513C10.91 18.8447 10.2294 18.8713 9.07536 18.4793C8.13136 18.1587 7.22469 17.9113 6.65269 17.664C5.86269 17.322 5.56003 16.1813 6.74603 15.644Z" fill="black"/>
<path opacity="0.07" d="M7.22399 15.7273C12.272 13.4707 18.48 10.8847 19.388 10.5187C21.564 9.64 22.3647 10.1613 22.1307 11.8593C21.9133 13.4313 21.142 18.2953 20.6013 21.556C20.2827 23.4753 19.352 23.898 18.14 23.114C17.3807 22.6247 14.3247 20.6113 13.5833 20.0253C13.01 19.5727 12.416 19.05 13.11 18.2933C13.342 18.0407 14.6233 16.804 15.5813 15.884C16.1367 15.35 15.9387 15.0867 15.2687 15.5453C14.04 16.3873 12.03 17.72 11.6713 17.962C10.988 18.422 10.346 18.5327 9.22865 18.1813C8.34799 17.904 7.49732 17.6353 7.05399 17.4627C6.06332 17.0787 6.04999 16.252 7.22399 15.7273Z" fill="black"/>
<path d="M7.70201 15.8113C12.362 13.7613 18.392 11.262 19.2247 10.916C21.408 10.0107 22.078 10.184 21.744 12.1893C21.504 13.6307 20.812 18.402 20.26 21.372C19.9327 23.1333 19.198 23.342 18.0433 22.58C17.488 22.2133 14.6847 20.3593 14.076 19.924C13.5207 19.5273 12.7547 19.05 13.7153 18.11C14.0573 17.7753 16.298 15.6353 18.044 13.97C18.2727 13.7513 17.9853 13.392 17.7213 13.5673C15.368 15.128 12.1053 17.294 11.69 17.576C11.0627 18.002 10.46 18.1973 9.37867 17.8867C8.56134 17.652 7.76334 17.372 7.45267 17.2653C6.25601 16.8547 6.54001 16.3227 7.70201 15.8113Z" fill="white"/>
<defs>
<linearGradient id="paint0_linear" x1="6.57196" y1="6.572" x2="25.428" y2="25.428" gradientUnits="userSpaceOnUse">
<stop stop-color="#33BEF0"/>
<stop offset="1" stop-color="#0A85D9"/>
</linearGradient>
</defs>
</svg>
